# xmcd
#
# Track frame offsets:
#	150
#	19550
#	34650
#	49477
#	69950
#	98025
#	112175
#	129700
#	146840
#	167602
#	184915
#	213125
#
# Disc length: 2877 seconds
#
# Revision: 1
# Processed by: cddbd v1.5.2PL0 Copyright (c) Steve Scherf et al.
# Submitted via: audiograbber 1.83.01
#
DISCID=aa0b3b0c
DTITLE=Point Blank - Prone To Bad Dreams
DYEAR=1992
DGENRE=Rap
TTITLE0=Point Blank - Point Blank
TTITLE1=Point Blank - After I Die
TTITLE2=Point Blank, UGK - Cut U N Half
TTITLE3=Point Blank - Life Rep Or Death
TTITLE4=Point Blank, K-Rino - Straighten It Out
TTITLE5=Point Blank - Knock Dem Hoes Out The Box
TTITLE6=Point Blank, K-Rino - Wreckless
TTITLE7=Point Blank - Bitch Said I Raped Her
TTITLE8=Point Blank - Prone To Bad Dreams
TTITLE9=Point Blank, Mr. 3-2, Klondike Kat - Aggravated
TTITLE10=Point Blank, .38, Def Buzy, Dope E, Ganksta NIP, K-Rino, K.O., Trinett
TTITLE10=a, Triple 6 - Nuttin Ass Bitch
TTITLE11=Point Blank - "86" Dope "86"
EXTD=www.RapMusicGuide.com
EXTT0=
EXTT1=
EXTT2=
EXTT3=
EXTT4=
EXTT5=
EXTT6=
EXTT7=
EXTT8=
EXTT9=
EXTT10=
EXTT11=
PLAYORDER=
